<?xml version="1.0" encoding="iso-8859-1"?>
<!-- Generator: Adobe Illustrator 16.0.0, SVG Export Plug-In . SVG Version: 6.00 Build 0)  -->
<!DOCTYPE svg PUBLIC "-//W3C//DTD SVG 1.1//EN" "http://www.w3.org/Graphics/SVG/1.1/DTD/svg11.dtd">
<svg version="1.1" id="Capa_1" xmlns="http://www.w3.org/2000/svg" xmlns:xlink="http://www.w3.org/1999/xlink" x="0px" y="0px"
	 width="474.864px" height="474.864px" viewBox="0 0 474.864 474.864" style="enable-background:new 0 0 474.864 474.864;"
	 xml:space="preserve">
<g>
	<g>
		<path d="M440.84,29.89c0,0-2.244-22.015-28.396-29.484c0,0-29.919,52.617-66.114,79.93c0,0,11.906,13.116-3.118,27.529l0.044,0.05
			l-64.627,65.644l-0.305-2.488c-2.108-3.162-4.549-6.171-7.33-8.958c-22.896-22.891-60.013-22.891-82.905,0
			c-11.231,11.243-16.923,25.91-17.126,40.637l-0.028-0.028c0,0-7.364,23.271-29.627,24.518c-0.165,0.008-0.24,0.058-0.399,0.066
			c-38.974-6.107-80.225,5.714-110.256,35.75c-49.917,49.908-34.614,115.542,15.298,165.459
			c49.911,49.904,115.544,65.208,165.455,15.3c24.79-24.794,37.243-57.238,37.409-89.734l0.014,0.017c0,0,0-0.165-0.008-0.225
			c0-0.377-0.006-0.741-0.006-1.103c-0.042-7.277,1.004-44.55,26.078-46.097c27.784-1.72,43.332-22.366,43.332-22.366
			s20.968-23.227-9.061-18.706c-30.04,4.54-26.265-37.786-26.265-37.786l-0.056,0.016c0.677-1.477,1.282-2.976,1.827-4.488
			l-0.177-1.431l87.995-89.38c3.703-2.721,13.506-8.474,25.764-3.737c0,0,49.532-55.799,76.61-71.673
			C474.864,57.112,452.739,25.454,440.84,29.89z"/>
	</g>
</g>
<g>
</g>
<g>
</g>
<g>
</g>
<g>
</g>
<g>
</g>
<g>
</g>
<g>
</g>
<g>
</g>
<g>
</g>
<g>
</g>
<g>
</g>
<g>
</g>
<g>
</g>
<g>
</g>
<g>
</g>
</svg>
